<?xml version="1.0" encoding="UTF-8"?>
<!DOCTYPE svg PUBLIC "-//W3C//DTD SVG 1.1//EN" "http://www.w3.org/Graphics/SVG/1.1/DTD/svg11.dtd">
<svg xmlns="http://www.w3.org/2000/svg" version="1.1" width="512px" height="512px" style="shape-rendering:geometricPrecision; text-rendering:geometricPrecision; image-rendering:optimizeQuality; fill-rule:evenodd; clip-rule:evenodd" xmlns:xlink="http://www.w3.org/1999/xlink">
<g><path style="opacity:0.995" fill="#ffd8b2" d="M 245.5,-0.5 C 248.833,-0.5 252.167,-0.5 255.5,-0.5C 255.5,40.1667 255.5,80.8333 255.5,121.5C 192.976,117.845 144.809,142.178 111,194.5C 95.8151,219.898 89.4818,247.232 92,276.5C 95.1987,283.681 100.699,286.514 108.5,285C 114.667,283.5 118.5,279.667 120,273.5C 123.148,211.026 154.648,170.859 214.5,153C 228.084,150.322 241.75,149.822 255.5,151.5C 255.5,151.833 255.5,152.167 255.5,152.5C 255.5,162.167 255.5,171.833 255.5,181.5C 209.804,177.092 176.971,195.425 157,236.5C 144.176,279.378 152.509,317.711 182,351.5C 202.107,372.471 226.607,384.804 255.5,388.5C 255.5,388.833 255.5,389.167 255.5,389.5C 255.5,430.167 255.5,470.833 255.5,511.5C 252.167,511.5 248.833,511.5 245.5,511.5C 236.932,509.051 228.932,505.218 221.5,500C 214.427,493.598 208.094,486.598 202.5,479C 198.65,475.973 194.316,474.973 189.5,476C 170.671,485.46 151.337,486.793 131.5,480C 118.822,473.654 109.989,463.82 105,450.5C 101.742,442.135 99.7423,433.468 99,424.5C 98.0044,418.841 94.8378,415.007 89.5,413C 33.2491,405.097 15.0824,374.597 35,321.5C 36.0274,316.684 35.0274,312.35 32,308.5C 19.4706,299.973 9.80394,288.973 3,275.5C 1.89744,272.02 0.73077,268.687 -0.5,265.5C -0.5,258.833 -0.5,252.167 -0.5,245.5C 1.94914,236.932 5.78247,228.932 11,221.5C 17.4024,214.427 24.4024,208.094 32,202.5C 35.0274,198.65 36.0274,194.316 35,189.5C 26.3432,172.56 24.3432,154.894 29,136.5C 35.7269,119.441 47.8936,108.274 65.5,103C 72.3787,101.024 79.3787,99.6909 86.5,99C 92.1594,98.0044 95.9927,94.8378 98,89.5C 105.894,33.2613 136.394,15.0946 189.5,35C 198.577,35.7064 205.077,31.8731 209,23.5C 218.725,11.569 230.892,3.56902 245.5,-0.5 Z"/></g>
<g><path style="opacity:1" fill="#ffbb99" d="M 255.5,-0.5 C 258.833,-0.5 262.167,-0.5 265.5,-0.5C 283.709,4.9655 298.043,15.7988 308.5,32C 312.35,35.0274 316.684,36.0274 321.5,35C 338.44,26.3432 356.106,24.3432 374.5,29C 391.559,35.7269 402.726,47.8936 408,65.5C 409.976,72.3787 411.309,79.3787 412,86.5C 412.996,92.1594 416.162,95.9927 421.5,98C 438.049,99.213 453.049,104.546 466.5,114C 482.435,128.886 487.935,147.052 483,168.5C 481.464,175.773 479.131,182.773 476,189.5C 474.973,194.316 475.973,198.65 479,202.5C 491.529,211.027 501.196,222.027 508,235.5C 509.103,238.98 510.269,242.313 511.5,245.5C 511.5,252.167 511.5,258.833 511.5,265.5C 509.051,274.068 505.218,282.068 500,289.5C 493.598,296.573 486.598,302.906 479,308.5C 475.973,312.35 474.973,316.684 476,321.5C 485.526,340.32 486.86,359.653 480,379.5C 473.654,392.178 463.82,401.011 450.5,406C 442.126,409.26 433.46,411.26 424.5,412C 418.841,412.996 415.007,416.162 413,421.5C 405.148,477.685 374.648,495.851 321.5,476C 316.684,474.973 312.35,475.973 308.5,479C 299.973,491.529 288.973,501.196 275.5,508C 272.02,509.103 268.687,510.269 265.5,511.5C 262.167,511.5 258.833,511.5 255.5,511.5C 255.5,470.833 255.5,430.167 255.5,389.5C 311.085,393.462 352.252,371.128 379,322.5C 399.676,268.225 391.676,218.558 355,173.5C 328.99,144.244 296.49,127.244 257.5,122.5C 257.158,121.662 256.492,121.328 255.5,121.5C 255.5,80.8333 255.5,40.1667 255.5,-0.5 Z"/></g>
<g><path style="opacity:1" fill="#ff7459" d="M 255.5,121.5 C 256.492,121.328 257.158,121.662 257.5,122.5C 255.527,131.775 254.86,141.442 255.5,151.5C 241.75,149.822 228.084,150.322 214.5,153C 154.648,170.859 123.148,211.026 120,273.5C 118.5,279.667 114.667,283.5 108.5,285C 100.699,286.514 95.1987,283.681 92,276.5C 89.4818,247.232 95.8151,219.898 111,194.5C 144.809,142.178 192.976,117.845 255.5,121.5 Z"/></g>
<g><path style="opacity:1" fill="#f24c3c" d="M 257.5,122.5 C 296.49,127.244 328.99,144.244 355,173.5C 391.676,218.558 399.676,268.225 379,322.5C 352.252,371.128 311.085,393.462 255.5,389.5C 255.5,389.167 255.5,388.833 255.5,388.5C 254.86,378.442 255.527,368.775 257.5,359.5C 300.427,363.292 331.927,346.292 352,308.5C 368.959,255.047 355.792,210.547 312.5,175C 295.52,162.514 276.52,155.014 255.5,152.5C 255.5,152.167 255.5,151.833 255.5,151.5C 254.86,141.442 255.527,131.775 257.5,122.5 Z"/></g>
<g><path style="opacity:1" fill="#feba98" d="M 255.5,152.5 C 276.52,155.014 295.52,162.514 312.5,175C 355.792,210.547 368.959,255.047 352,308.5C 331.927,346.292 300.427,363.292 257.5,359.5C 257.158,358.662 256.492,358.328 255.5,358.5C 255.5,348.5 255.5,338.5 255.5,328.5C 294.491,334.583 319.324,318.583 330,280.5C 332.406,242.812 317.906,213.645 286.5,193C 277.43,187.796 267.763,184.296 257.5,182.5C 257.158,181.662 256.492,181.328 255.5,181.5C 255.5,171.833 255.5,162.167 255.5,152.5 Z"/></g>
<g><path style="opacity:1" fill="#ff7459" d="M 255.5,181.5 C 256.492,181.328 257.158,181.662 257.5,182.5C 255.526,192.111 254.859,202.111 255.5,212.5C 223.304,206.681 199.804,218.348 185,247.5C 174.772,291.146 188.606,324.979 226.5,349C 235.501,354.278 245.168,357.445 255.5,358.5C 256.492,358.328 257.158,358.662 257.5,359.5C 255.527,368.775 254.86,378.442 255.5,388.5C 226.607,384.804 202.107,372.471 182,351.5C 152.509,317.711 144.176,279.378 157,236.5C 176.971,195.425 209.804,177.092 255.5,181.5 Z"/></g>
<g><path style="opacity:1" fill="#f24c3c" d="M 257.5,182.5 C 267.763,184.296 277.43,187.796 286.5,193C 317.906,213.645 332.406,242.812 330,280.5C 319.324,318.583 294.491,334.583 255.5,328.5C 255.172,317.654 255.506,306.987 256.5,296.5C 273.28,303.517 286.78,299.517 297,284.5C 303.643,257.434 295.476,235.934 272.5,220C 267.21,216.738 261.543,214.572 255.5,213.5C 255.5,213.167 255.5,212.833 255.5,212.5C 254.859,202.111 255.526,192.111 257.5,182.5 Z"/></g>
<g><path style="opacity:1" fill="#ffd8b2" d="M 255.5,212.5 C 255.5,212.833 255.5,213.167 255.5,213.5C 255.5,240.833 255.5,268.167 255.5,295.5C 244.991,288.792 239.824,279.125 240,266.5C 236.656,258.24 230.489,254.74 221.5,256C 214.281,258.593 210.614,263.76 210.5,271.5C 212.855,300.567 227.855,319.567 255.5,328.5C 255.5,338.5 255.5,348.5 255.5,358.5C 245.168,357.445 235.501,354.278 226.5,349C 188.606,324.979 174.772,291.146 185,247.5C 199.804,218.348 223.304,206.681 255.5,212.5 Z"/></g>
<g><path style="opacity:1" fill="#feba98" d="M 255.5,213.5 C 261.543,214.572 267.21,216.738 272.5,220C 295.476,235.934 303.643,257.434 297,284.5C 286.78,299.517 273.28,303.517 256.5,296.5C 256.5,295.833 256.167,295.5 255.5,295.5C 255.5,268.167 255.5,240.833 255.5,213.5 Z"/></g>
<g><path style="opacity:1" fill="#ff7459" d="M 255.5,295.5 C 256.167,295.5 256.5,295.833 256.5,296.5C 255.506,306.987 255.172,317.654 255.5,328.5C 227.855,319.567 212.855,300.567 210.5,271.5C 210.614,263.76 214.281,258.593 221.5,256C 230.489,254.74 236.656,258.24 240,266.5C 239.824,279.125 244.991,288.792 255.5,295.5 Z"/></g>
</svg>
